<?xml version="1.0" encoding="utf-8"?>
<!-- Generator: Adobe Illustrator 14.0.0, SVG Export Plug-In . SVG Version: 6.00 Build 43363)  -->
<!DOCTYPE svg PUBLIC "-//W3C//DTD SVG 1.1//EN" "http://www.w3.org/Graphics/SVG/1.1/DTD/svg11.dtd">
<svg version="1.1" id="Ebene_1" xmlns="http://www.w3.org/2000/svg" xmlns:xlink="http://www.w3.org/1999/xlink" x="0px" y="0px"
	 width="841.89px" height="595.279px" viewBox="0 0 841.89 595.279" enable-background="new 0 0 841.89 595.279"
	 xml:space="preserve">
<g id="Ebene_1_1_">
	<path fill="#FFFFFF" stroke="#C6C7C8" stroke-width="4" d="M570.871,335.472"/>
	<path fill="#C6C7C8" d="M624.992,351.056l2.983,23.021l-2.46,27.062l-0.022,0.255l0.01,0.257l0.385,10.319l-103.866,5.267
		c-1.504-0.125-8.562-0.658-19.347-0.658c-5.567,0-11.247,0.146-16.877,0.431c-5.457,0.276-11.482,1.074-17.862,1.921
		c-6.311,0.836-12.836,1.7-18.638,1.994c-22.652,1.147-42.386,2.137-50.599,2.547l-0.367-11.267l-0.029-0.884l-0.398-0.789
		l-2.276-4.506c-0.046-3.989-0.229-19.796-0.312-27.062l27.05-2.479l3.585-0.328l0.05-3.601l0.202-14.765l14.406-1.777l47.542-2.684
		l43.16-0.832L624.992,351.056 M628.5,347.001l-97.25,1.497L488,349.332l-47.75,2.694l-18,2.222L422,372.501l-30.727,2.813
		l0.364,31.683l2.695,5.335l0.5,15.334c0,0,24.797-1.236,54.667-2.75c11.696-0.594,25.695-3.367,36.5-3.915
		c6.188-0.313,11.811-0.426,16.675-0.426c11.91,0,19.276,0.667,19.276,0.667l108.081-5.479l-0.532-14.265l2.5-27.5L628.5,347.001
		L628.5,347.001z"/>
	<path fill="#C6C7C8" d="M626.959,218.505c0.585,7.063,1.812,21.896,2.023,24.447c-0.052,0.285-0.086,0.547-0.114,0.764
		c-0.106,0.801-0.258,1.956-0.441,3.372c-0.334,2.583-0.839,6.566-1.349,10.879c-1.32,11.168-2.021,18.898-2.078,22.976
		c-0.108,7.644,2.654,28.871,3.924,38.188L426.5,324.886v-45l81.617-2.387l3.918-0.114l-0.035-3.92l-0.479-52.696L626.959,218.505
		 M630.636,214.432L630.636,214.432l-123.149,2.415L508,273.501l-85.5,2.5v53l211-6c0,0-4.635-32.502-4.5-42.002s4-38,4-38
		L630.636,214.432L630.636,214.432z"/>
	<path fill="#C6C7C8" d="M580.845,90.825l28.408,76.072l0.043,0.116l0.051,0.113l14.018,31.432l-79.734,0.764l-11.44,0.11
		l-19.729-2.045l-0.403-35.083l2.433-30.149l0.028-0.367l-0.037-0.367l-2.47-23.785l-0.007-9.061L580.845,90.825 M583.5,86.501
		l-75.5,8.5l0.01,12.844l2.49,23.99l-2.446,30.333L508.5,201l23.5,2.437l11.667-0.111l83.001-0.796l1.25-3.574L613,165.499
		L583.5,86.501L583.5,86.501z"/>
	<path fill="#C6C7C8" d="M491.38,82.537l-3.478,118.528l-74.742,1.661l-9.323-27.605l-1.302-3.856l-3.833,1.369l-4.637,1.656
		l-20.419-59.556l-1.233-3.599l-3.657,1.053l-10.524,3.03l-9.091-31.431L491.38,82.537 M495.5,78.501l-151.667,1.333l11.667,40.333
		l14.364-4.137l21.732,63.388l8.451-3.019l10.263,30.392l81.479-1.812L495.5,78.501L495.5,78.501z"/>
	<path fill="#C6C7C8" d="M323.398,81.896l20.575,75.655l0.202,0.742l0.463,0.615l38.372,50.945l0.956,116.527l-60.31-1.774
		L301.781,88.683L323.398,81.896 M326.167,76.834l-28.667,9L320,328.501l68,2l-1-122l-39.167-52L326.167,76.834L326.167,76.834z"/>
	<path fill="#C6C7C8" d="M282.417,93.728l4.692,51.204l0.008,0.081l0.011,0.081L293,189.259l-0.045,19.235v0.212l0.021,0.211
		l12.062,115.854l-67.665-3.369l-2.338-218.948L282.417,93.728 M286,89.001l-55.001,10.128l2.415,226.081l76.086,3.788
		l-12.545-120.495L297,188.999l-5.907-44.433L286,89.001L286,89.001z"/>
	<path fill="#C6C7C8" d="M242.276,348.055l111.201,3.537l0.549,76.294l-27.646,1.827l-27.848-0.215l-0.295-0.002l-0.292,0.041
		l-14.003,1.96l-9.627,1.348l-3.173,0.443c-0.229,0.032-0.548,0.077-0.912,0.153l-0.001-0.015l-27.264,1.803L242.276,348.055
		 M238.243,343.925L239,439.501l31.494-2.082l28.006-3.921l27.995,0.216l31.558-2.086l-0.604-83.912L238.243,343.925
		L238.243,343.925z"/>
	<path fill="#C6C7C8" d="M338.887,449.194l-1.303,60.966l-95.102-0.151l-0.225-54.286L338.887,449.194 M342.979,444.908
		l-104.735,7.074L238.5,514l103,0.165L342.979,444.908L342.979,444.908z"/>
	<path fill="#C6C7C8" d="M628.448,445.316v49.214l-75.491,15.56h-55.334l-51.294,0.576l-63.705-0.543l0.352-52.812L628.448,445.316
		 M632.448,441.115L379,453.501l-0.403,60.588l67.737,0.577l51.333-0.577h55.697l79.083-16.3V441.115L632.448,441.115z"/>
</g>
</svg>
