<?xml version="1.0" encoding="utf-8"?>
<!-- Generator: Adobe Illustrator 14.0.0, SVG Export Plug-In . SVG Version: 6.00 Build 43363)  -->
<!DOCTYPE svg PUBLIC "-//W3C//DTD SVG 1.1//EN" "http://www.w3.org/Graphics/SVG/1.1/DTD/svg11.dtd">
<svg version="1.1" id="Ebene_1" xmlns="http://www.w3.org/2000/svg" xmlns:xlink="http://www.w3.org/1999/xlink" x="0px" y="0px"
	 width="841.89px" height="595.279px" viewBox="0 0 841.89 595.279" enable-background="new 0 0 841.89 595.279"
	 xml:space="preserve">
<path fill="#FFFFFF" stroke="#C6C7C8" stroke-width="4" d="M164.871,85.472"/>
<path fill="#C6C7C8" d="M222.5,97.001l-97.25,1.498L82,99.333l-47.75,2.693l-18,2.223L16,122.501l-30.727,2.813l0.364,31.684
	l2.695,5.335l0.5,15.333l54.667-2.75l36.5-3.915l16.675-0.425l19.276,0.667l108.081-5.48l-0.532-14.264l2.5-27.5L222.5,97.001
	L222.5,97.001z"/>
<path fill="#C6C7C8" d="M224.636-35.568L224.636-35.568l-123.15,2.415L102,23.501l-85.5,2.5v53l211-6L223,30.999l4-38
	L224.636-35.568L224.636-35.568z"/>
<path fill="#C6C7C8" d="M177.5-163.499l-75.5,8.5l0.01,12.844l2.49,23.99l-2.446,30.333L102.5-49l23.5,2.437l11.667-0.111
	l83.001-0.796l1.25-3.574L207-84.501L177.5-163.499L177.5-163.499z"/>
<path fill="#C6C7C8" d="M89.5-171.499l-151.667,1.333l11.667,40.333l14.363-4.137l21.733,63.388l8.451-3.019L4.311-43.208
	l81.479-1.812L89.5-171.499L89.5-171.499z"/>
<path fill="#C6C7C8" d="M-79.833-173.166l-28.667,9L-86,78.501l68,2l-1-122l-39.167-52L-79.833-173.166L-79.833-173.166z"/>
<path fill="#C6C7C8" d="M-120-160.999l-55.001,10.128l2.415,226.081l76.086,3.789l-12.545-120.496L-109-61.001l-5.907-44.433
	L-120-160.999L-120-160.999z"/>
<path fill="#C6C7C8" d="M-167.757,93.925l0.757,95.576l31.494-2.082l28.006-3.92l27.995,0.215l31.558-2.086l-0.604-83.912
	L-167.757,93.925L-167.757,93.925z"/>
<path fill="#C6C7C8" d="M-63.021,194.909l-104.735,7.073l0.257,62.019l103,0.165L-63.021,194.909L-63.021,194.909z"/>
<path fill="#C6C7C8" d="M226.447,191.116L-27,203.501l-0.403,60.588l67.737,0.577l51.333-0.577h55.696l79.083-16.299V191.116
	L226.447,191.116z"/>
</svg>
