<?xml version="1.0" encoding="UTF-8" standalone="no"?>
<!-- Created with Inkscape (http://www.inkscape.org/) -->

<svg
   xmlns:dc="http://purl.org/dc/elements/1.1/"
   xmlns:cc="http://creativecommons.org/ns#"
   xmlns:rdf="http://www.w3.org/1999/02/22-rdf-syntax-ns#"
   xmlns:svg="http://www.w3.org/2000/svg"
   xmlns="http://www.w3.org/2000/svg"
   version="1.1"
   width="841.89001"
   height="595.27899"
   viewBox="0 0 841.89 595.279"
   id="Ebene_1"
   xml:space="preserve"><metadata
     id="metadata27"><rdf:RDF><cc:Work
         rdf:about=""><dc:format>image/svg+xml</dc:format><dc:type
           rdf:resource="http://purl.org/dc/dcmitype/StillImage" /><dc:title></dc:title></cc:Work></rdf:RDF></metadata><defs
     id="defs25" /><path
     d="M 164.871,85.472"
     id="path3" /><path
     d="M 222.5,97.001 125.25,98.499 82,99.333 34.25,102.026 16.25,104.249 16,122.501 -14.727,125.314 -14.363,156.998 -11.668,162.333 -11.168,177.666 43.499,174.916 79.999,171.001 96.674,170.576 115.95,171.243 224.031,165.763 223.499,151.499 225.999,123.999 222.5,97.001 222.5,97.001 z"
     id="path5" /><path
     d="M 224.636,-35.568 224.636,-35.568 101.486,-33.153 102,23.501 16.5,26.001 V 79.001 L 227.5,73.001 223,30.999 227,-7.001 224.636,-35.568 224.636,-35.568 z"
     id="path7" /><path
     d="M 177.5,-163.499 102,-154.999 102.01,-142.155 104.5,-118.165 102.054,-87.832 102.5,-49 126,-46.563 137.667,-46.674 220.668,-47.47 221.918,-51.044 207,-84.501 177.5,-163.499 177.5,-163.499 z"
     id="path9" /><path
     d="M 89.5,-171.499 -62.167,-170.166 -50.5,-129.833 -36.137,-133.97 -14.404,-70.582 -5.953,-73.601 4.311,-43.208 85.79,-45.02 89.5,-171.499 89.5,-171.499 z"
     id="path11" /><path
     d="M -79.833,-173.166 -108.5,-164.166 -86,78.501 -18,80.501 -19,-41.499 -58.167,-93.499 -79.833,-173.166 -79.833,-173.166 z"
     id="path13" /><path
     d="M -120,-160.999 -175.001,-150.871 -172.586,75.21 -96.5,78.999 -109.045,-41.497 -109,-61.001 -114.907,-105.434 -120,-160.999 -120,-160.999 z"
     id="path15" /><path
     d="M -167.757,93.925 -167,189.501 -135.506,187.419 -107.5,183.499 -79.505,183.714 -47.947,181.628 -48.551,97.716 -167.757,93.925 -167.757,93.925 z"
     id="path17" /><path
     d="M -63.021,194.909 -167.756,201.982 -167.499,264.001 -64.499,264.166 -63.021,194.909 -63.021,194.909 z"
     id="path19" /><path
     d="M 226.447,191.116 -27,203.501 -27.403,264.089 40.334,264.666 91.667,264.089 H 147.363 L 226.446,247.79 V 191.116 L 226.447,191.116 z"
     id="path21" /></svg>