<?xml version="1.0" encoding="utf-8"?>
<!-- Generator: Adobe Illustrator 14.0.0, SVG Export Plug-In . SVG Version: 6.00 Build 43363)  -->
<!DOCTYPE svg PUBLIC "-//W3C//DTD SVG 1.1//EN" "http://www.w3.org/Graphics/SVG/1.1/DTD/svg11.dtd">
<svg version="1.1" id="Ebene_2" xmlns="http://www.w3.org/2000/svg" xmlns:xlink="http://www.w3.org/1999/xlink" x="0px" y="0px"
	 width="841.89px" height="595.28px" viewBox="0 0 841.89 595.28" enable-background="new 0 0 841.89 595.28" xml:space="preserve">
<polyline fill="none" stroke="#000000" points="376.5,436 396,441.001 640.5,428.5 "/>
<line fill="none" stroke="#000000" x1="636" y1="335.473" x2="405.025" y2="341.502"/>
<polyline fill="none" stroke="#000000" points="502.75,75.784 500.25,211.432 637.25,209.001 "/>
<line fill="none" stroke="#000000" x1="405.5" y1="221" x2="500.25" y2="211.432"/>
<polyline fill="none" stroke="#000000" points="405.32,266.667 497.334,264 500.25,211.432 "/>
<line fill="none" stroke="#000000" x1="233.75" y1="446.25" x2="376.5" y2="436"/>
<polyline fill="none" stroke="#000000" points="359.333,523.668 360,454.001 376.5,436 "/>
<polyline fill="none" stroke="#000000" points="376.5,436 375,363.334 405.025,341.502 "/>
<line fill="none" stroke="#000000" x1="405.32" y1="266.667" x2="405.025" y2="341.502"/>
<line fill="none" stroke="#000000" x1="405.5" y1="221" x2="405.32" y2="266.667"/>
<line fill="none" stroke="#000000" x1="230" y1="334.334" x2="405.025" y2="341.502"/>
<polyline fill="none" stroke="#000000" points="333,70 356,153 405.5,221 "/>
</svg>
